<?xml version="1.0" encoding="utf-8"?>
<!-- Generator: Adobe Illustrator 21.0.0, SVG Export Plug-In . SVG Version: 6.00 Build 0)  -->
<svg version="1.1" id="Layer_1" xmlns="http://www.w3.org/2000/svg" xmlns:xlink="http://www.w3.org/1999/xlink" x="0px" y="0px"
	 viewBox="0 0 256 91.7" style="enable-background:new 0 0 256 91.7;" xml:space="preserve">
<style type="text/css">
	.st0{display:none;fill:#FEFFD4;}
	.st1{opacity:0.2;}
	.st2{fill:none;stroke:#000000;stroke-miterlimit:10;}
	.st3{display:none;fill:#00182D;}
	.st4{fill:#FFFFFF;}
	.st5{fill:none;stroke:#FFFFFF;stroke-miterlimit:10;}
</style>
<path class="st0" d="M128,174.4L128,174.4l0-256h0c70.7,0,128,57.3,128,128v0C256,117.1,198.7,174.4,128,174.4z"/>
<g>
	<path d="M193.2,88.3c-14.2,0-36.8-2.9-45.8-4.2c-4.4-0.6-8-3.4-9.2-7.2c-1.5-4.9-4-14.6-4.4-26.7l-1.4-1c-1-0.7-3.3-1-3.3-1l0-10.6
		c0,0,3.4,0.2,5,0.6c0.9-10.5,3.2-19.2,4.7-23.9c1.2-3.8,4.8-6.6,9.2-7.2c8.2-1.1,29-3.7,46-3.7c16.9,0,35.7,2.6,43,3.7
		c4.4,0.7,7.9,3.5,9.1,7.3c0.7,2.3,1.5,5.3,2.3,8.8c3.7,1.4,6.5,4.3,7.3,7.9c0.7,3,1.5,7.7,1.5,12.4c0,4.6-0.5,9.6-0.9,12.9
		c-0.5,3.9-3.3,7.1-7.2,8.7c-1,5.1-2.1,9.6-3,12.6c-1.1,4-4.9,6.9-9.6,7.5C228,86.1,207.1,88.3,193.2,88.3z M149.7,73.7
		c9.1,1.2,30.4,4,43.5,4c13,0,32.7-2,41.1-2.9c1.5-5.2,4.5-17.5,4.5-29c0-11.5-3.1-23.5-4.5-28.4c-7.3-1.1-24.8-3.5-40.4-3.5
		c-15.8,0-35.5,2.4-43.6,3.6c-1.7,5.6-4.4,16.4-4.4,28.9C145.7,58.7,148.2,68.7,149.7,73.7z"/>
	<g class="st1">
		<line class="st2" x1="43.8" y1="22.9" x2="87.6" y2="69.1"/>
		<line class="st2" x1="68" y1="27.7" x2="82.6" y2="43.1"/>
		<line class="st2" x1="47.6" y1="50.3" x2="62.2" y2="65.8"/>
	</g>
	<g class="st1">
		<line class="st2" x1="170.8" y1="22.9" x2="214.6" y2="69.1"/>
		<line class="st2" x1="194.9" y1="27.7" x2="209.5" y2="43.1"/>
		<line class="st2" x1="174.6" y1="50.3" x2="189.2" y2="65.8"/>
	</g>
</g>
<path class="st3" d="M128,174.4L128,174.4c-70.7,0-128-57.3-128-128v0c0-70.7,57.3-128,128-128h0V174.4z"/>
<g>
	<path class="st4" d="M128.6,48.2c0,0-2.3,0.3-3.3,1l-1.4,1c-0.4,12.1-2.9,21.8-4.4,26.7c-1.2,3.8-4.8,6.6-9.2,7.2
		c-9.1,1.3-31.7,4.2-45.8,4.2c-13.9,0-34.8-2.2-43.1-3.1c-4.7-0.5-8.5-3.4-9.6-7.5c-0.9-3.1-2-7.5-3-12.6c-3.9-1.6-6.7-4.8-7.2-8.7
		c-0.4-3.3-0.9-8.3-0.9-12.9c0-3.8,0.5-8,1.5-12.4c0.8-3.6,3.6-6.5,7.3-7.9c0.8-3.5,1.6-6.6,2.3-8.8l0,0c1.1-3.8,4.7-6.6,9.1-7.3
		c7.3-1.1,26.1-3.7,43-3.7c17,0,37.8,2.6,46,3.7c4.4,0.6,8,3.4,9.2,7.2c1.5,4.8,3.8,13.5,4.7,23.9c1.6-0.4,5-0.6,5-0.6L128.6,48.2z
		 M23.3,74.8c8.4,0.9,28.1,2.9,41.1,2.9c13.1,0,34.4-2.7,43.5-4c1.5-5.1,4-15,4-27.3c0-12.5-2.7-23.4-4.4-28.9
		c-8.2-1.1-27.8-3.6-43.6-3.6c-15.6,0-33.1,2.4-40.4,3.5c-1.5,5-4.5,16.9-4.5,28.4C18.8,57.3,21.8,69.6,23.3,74.8z"/>
	<g class="st1">
		<line class="st5" x1="43.4" y1="22.9" x2="87.2" y2="69.1"/>
		<line class="st5" x1="67.5" y1="27.7" x2="82.1" y2="43.1"/>
		<line class="st5" x1="47.1" y1="50.3" x2="61.7" y2="65.8"/>
	</g>
</g>
</svg>
